<?xml version="1.0" encoding="utf-8"?>
<!-- Generator: Adobe Illustrator 16.0.0, SVG Export Plug-In . SVG Version: 6.00 Build 0)  -->
<!DOCTYPE svg PUBLIC "-//W3C//DTD SVG 1.1//EN" "http://www.w3.org/Graphics/SVG/1.1/DTD/svg11.dtd">
<svg version="1.1" xmlns="http://www.w3.org/2000/svg" xmlns:xlink="http://www.w3.org/1999/xlink" x="0px" y="0px" width="960px"
	 height="560px" viewBox="0 0 960 560" enable-background="new 0 0 960 560" xml:space="preserve">
<g id="Layer_58">
	<path d="M540.966,25c3.342,0.65,6.742,1.09,10.019,1.986c22.571,6.18,40.115,19.323,53.104,38.685
		c0.646,0.96,1.188,1.994,1.695,3.034c0.287,0.588,0.401,1.26,0.598,1.895c-12.905,3.832-24.175,0.494-32.304-9.547
		c-1.778-2.196-3.648-4.328-5.285-6.625c-8.308-11.658-19.278-19.474-33.088-23.335c-2.485-0.695-4.865-1.764-7.242-3.78
		c3.502-0.771,7.004-1.542,10.506-2.312C539.633,25,540.299,25,540.966,25z"/>
</g>
<g id="Layer_57">
	<path d="M486.231,291.543c-0.121-13.471-0.872-26.228-0.034-38.879c0.333-5.028,3.303-10.558,6.633-14.561
		c5.768-6.932,12.753-12.851,19.228-19.195c0.644,0.177,1.283,0.354,1.927,0.53c0.657,13.801,2.897,27.761,1.533,41.359
		c-1.387,13.817-10.989,23.396-23.826,29.107C490.374,290.489,488.915,290.75,486.231,291.543z"/>
</g>
<g id="Layer_56">
	<path d="M629.529,374.616c-0.903,2.686-1.569,4.648-2.227,6.62c-1.308,3.932-2.854,7.804-3.864,11.811
		c-2.666,10.582,0.41,15.499,10.747,18.784c3.177,1.01,6.75,2.562,8.798,4.995c6.435,7.648,4.31,26.325-3.313,32.747
		c-0.801,0.675-2.629,1.192-3.341,0.753c-13.024-8.063-25.005-17.504-26.988-33.863c-2.018-16.632,3.687-30.766,17.621-40.931
		C627.429,375.192,628.088,375.118,629.529,374.616z"/>
</g>
<g id="Layer_55">
	<path d="M507.524,469.844c-12.389,0.509-20.356-6.126-27.068-15.945c-6.557,9.591-14.592,16.434-27.065,15.994
		c-1.171-8.145-0.786-15.961,4.521-22.357c6.249-7.53,13.053-14.616,19.897-21.618c0.906-0.926,4.308-1.016,5.156-0.139
		c6.938,7.145,13.874,14.343,20.148,22.063C508.193,454.087,508.773,461.754,507.524,469.844z M480.451,451.155
		c3.666-7.944,3.406-14.892-0.049-22.562C477.087,436.327,476.653,443.32,480.451,451.155z"/>
</g>
<g id="Layer_54">
	<path d="M668.457,379.218c20.486,9.563,28.803,35.98,17.709,54.648c-6.118,10.295-15.338,17.249-25.482,23.326
		c-2.1-6.304-4.257-12.185-6.014-18.183c-3.309-11.298,1.011-19.314,12.006-22.777c8.834-2.781,11.552-7.099,9.438-16.146
		c-1.047-4.483-2.97-8.767-4.563-13.117C670.663,384.536,669.636,382.153,668.457,379.218z"/>
</g>
<g id="Layer_53">
	<path d="M650.896,443.425c5.885,13.961,6.505,28.276-2.771,42.243c-8.033,12.096-18.45,21.618-31.085,30.766
		c0.961-20.075,2.43-38.607,16.977-53.332C640.159,456.883,645.452,449.824,650.896,443.425z"/>
</g>
<g id="Layer_52">
	<path d="M497.746,167.802c16.038,9.49,20.562,28.683,11.149,44.716c-5.636,9.599-14.337,15.968-23.865,22.569
		c-3.588-16.784-6.1-32.779,5.703-47.176C495.366,182.259,499.153,176.281,497.746,167.802z"/>
</g>
<g id="Layer_51">
	<path d="M527.479,505.016c11.422,0.486,22.402,1.71,30.593,11.295c4.077,4.773,6.124,5.237,16.394,6.097
		c-5.119,9.02-16.674,12.665-28.204,8.896C533.936,527.275,526.136,516.545,527.479,505.016z"/>
</g>
<g id="Layer_50">
	<path d="M496.316,476.112c16.436-0.937,24.951,6.861,25.363,22.858c0.123,4.783,0.458,9.563,0.695,14.342
		C508.798,513.706,494.195,493.162,496.316,476.112z"/>
</g>
<g id="Layer_49">
	<path d="M621.493,122.196c-0.904,18.349-27.794,46.317-42.637,44.659C580.489,153.569,597.849,135.386,621.493,122.196z"/>
</g>
<g id="Layer_48">
	<path d="M611.657,508.928c0.392,14.408-21.018,32.395-43.229,25.772C577.796,517.609,592.761,510.009,611.657,508.928z"/>
</g>
<g id="Layer_47">
	<path d="M604.297,158.013c-7.867,17.771-29.726,30.294-58.987,35.931c4.596-6.326,8.013-12.606,15.252-14.901
		C576.121,174.11,591.397,168.666,604.297,158.013z"/>
</g>
<g id="Layer_46">
	<path d="M552.819,352.896c-7.251-2.439-10.895-7.529-13.937-13.152c-5.69-10.523-8.092-22.041-9.883-33.719
		c-0.476-3.1-0.799-6.221-1.296-10.148c6.079,4.13,9.513,9.364,11.551,15.271C543.942,324.73,548.167,338.472,552.819,352.896z"/>
</g>
<g id="Layer_45">
	<path d="M545.334,184.584c-5.526,15.109-16.91,22.603-30.972,27.482C514.377,195.909,529.08,182.66,545.334,184.584z"/>
</g>
<g id="Layer_44">
	<path d="M604.779,360.595c0.187-2.438-0.281-4.435,0.504-5.336c7.96-9.13,15.914-18.281,24.297-27.019
		c6.651-6.936,15.115-8.282,24.426-5.816c-9.321,2.658-16.73,8.116-23.489,14.778c-7.542,7.436-15.397,14.551-23.132,21.792
		C607.04,359.316,606.569,359.505,604.779,360.595z"/>
</g>
<g id="Layer_43">
	<path d="M547.25,298.698c-16.91-9.241-23.929-24.575-16.774-35.813C543.38,271.215,544.178,285.039,547.25,298.698z"/>
</g>
<g id="Layer_42">
	<path d="M552.752,266.479c-11.636,1.898-28.478-9.895-27.102-25.021C535.609,240.103,548.745,255.286,552.752,266.479z"/>
</g>
<g id="Layer_41">
	<path d="M552.579,235.634c-19.347,1.516-31.896-5.937-33.538-19.621C533.489,216.641,543.525,224.392,552.579,235.634z"/>
</g>
<g id="Layer_40">
	<path d="M588.887,257.91c11.458-20.188,18.646-29.043,32.372-30.561c-5.193,7.24-10.167,14.578-15.578,21.575
		C601.679,254.1,596.106,256.971,588.887,257.91z"/>
</g>
<g id="Layer_39">
	<path d="M589.631,214.32c5.154-22.997,11.486-33.555,23.296-38.077c-3.25,8.549-6.208,17.042-9.711,25.303
		C600.739,207.387,596.187,211.482,589.631,214.32z"/>
</g>
<g id="Layer_38">
	<path d="M624.907,284.809c-6.314,4.467-12.212,8.668-18.142,12.823c-6.444,4.521-13.325,7.284-22.368,5.113
		C596.998,293.466,607.657,282.092,624.907,284.809z"/>
</g>
<g id="Layer_37">
	<path d="M595.473,361.943c-13.338,1.966-24.804-1.993-35.414-9.177c3.712-5.083,8.889-6.709,14.325-3.721
		C581.598,353.012,588.46,357.615,595.473,361.943z"/>
</g>
<g id="Layer_36">
	<path d="M549.859,293.219c5.404-2.736,10.594-2.117,15.497,1.047c5.605,3.62,11.064,7.471,16.401,11.094
		C568.897,309.408,554.921,304.281,549.859,293.219z"/>
</g>
<g id="Layer_35">
	<path d="M590.099,220.12c-6.321,9.235-20.136,13.418-33.1,9.395c3.905-7.586,10.612-9.375,18.251-9.393
		C580.318,220.11,585.387,220.12,590.099,220.12z"/>
</g>
<g id="Layer_34">
	<path d="M587.317,262.225c-9.642,8.08-24.498,7.718-32.167-0.783C562.106,255.254,567.527,255.387,587.317,262.225z"/>
</g>
<g id="Layer_32">
	<path d="M418.985,25c-3.342,0.65-6.742,1.09-10.017,1.986c-22.573,6.18-40.117,19.323-53.104,38.685
		c-0.644,0.96-1.188,1.994-1.695,3.034c-0.287,0.588-0.403,1.26-0.598,1.895c12.905,3.832,24.175,0.494,32.304-9.547
		c1.778-2.196,3.648-4.328,5.285-6.625c8.308-11.658,19.278-19.474,33.088-23.335c2.485-0.695,4.865-1.764,7.242-3.78
		c-3.502-0.771-7.004-1.542-10.506-2.312C420.318,25,419.652,25,418.985,25z"/>
</g>
<g id="Layer_31">
	<path d="M473.72,291.543c0.121-13.471,0.872-26.228,0.034-38.879c-0.333-5.028-3.303-10.558-6.633-14.561
		c-5.77-6.932-12.753-12.851-19.229-19.195c-0.642,0.177-1.281,0.354-1.925,0.53c-0.659,13.801-2.897,27.761-1.535,41.359
		c1.389,13.818,10.991,23.396,23.828,29.107C469.577,290.489,471.036,290.75,473.72,291.543z"/>
</g>
<g id="Layer_30">
	<path d="M330.422,374.616c0.903,2.686,1.569,4.648,2.225,6.62c1.308,3.932,2.854,7.804,3.865,11.811
		c2.667,10.582-0.411,15.499-10.747,18.784c-3.176,1.01-6.75,2.562-8.797,4.995c-6.435,7.648-4.31,26.325,3.312,32.747
		c0.801,0.675,2.629,1.192,3.341,0.753c13.024-8.063,25.005-17.504,26.988-33.863c2.018-16.632-3.685-30.766-17.621-40.931
		C332.522,375.192,331.863,375.118,330.422,374.616z"/>
</g>
<g id="Layer_29">
	<path d="M291.494,379.218c-20.486,9.563-28.803,35.98-17.709,54.648c6.118,10.295,15.338,17.249,25.482,23.326
		c2.1-6.304,4.257-12.185,6.014-18.183c3.309-11.298-1.011-19.314-12.006-22.777c-8.834-2.781-11.552-7.099-9.438-16.146
		c1.047-4.483,2.968-8.767,4.561-13.117C289.288,384.536,290.315,382.153,291.494,379.218z"/>
</g>
<g id="Layer_28">
	<path d="M309.055,443.425c-5.883,13.961-6.503,28.276,2.772,42.243c8.033,12.096,18.45,21.618,31.085,30.766
		c-0.961-20.075-2.43-38.607-16.977-53.332C319.792,456.883,314.499,449.824,309.055,443.425z"/>
</g>
<g id="Layer_27">
	<path d="M462.205,167.802c-16.038,9.49-20.563,28.683-11.15,44.716c5.637,9.599,14.336,15.968,23.866,22.569
		c3.588-16.784,6.098-32.779-5.703-47.176C464.585,182.259,460.798,176.281,462.205,167.802z"/>
</g>
<g id="Layer_26">
	<path d="M476.966,416.896c-0.289-13.579-2.429-25.665-13.79-34.557c-10.163-7.951-19.676-19.84-25.926-32.84
		C435.503,368.948,453.317,406.248,476.966,416.896z"/>
</g>
<g id="Layer_25">
	<path d="M432.473,505.016c-11.422,0.486-22.404,1.71-30.593,11.295c-4.077,4.773-6.124,5.237-16.394,6.097
		c5.119,9.02,16.674,12.665,28.204,8.896C426.016,527.275,433.815,516.545,432.473,505.016z"/>
</g>
<g id="Layer_24">
	<path d="M463.635,476.112c-16.436-0.937-24.953,6.861-25.364,22.858c-0.122,4.783-0.459,9.563-0.694,14.342
		C451.153,513.706,465.756,493.162,463.635,476.112z"/>
</g>
<g id="Layer_23">
	<path d="M338.458,122.196c0.904,18.349,27.794,46.317,42.637,44.659C379.462,153.569,362.103,135.386,338.458,122.196z"/>
</g>
<g id="Layer_22">
	<path d="M348.294,508.928c-0.392,14.408,21.016,32.395,43.227,25.772C382.155,517.609,367.19,510.009,348.294,508.928z"/>
</g>
<g id="Layer_21">
	<path d="M355.654,158.013c7.867,17.771,29.726,30.294,58.987,35.931c-4.594-6.326-8.011-12.606-15.252-14.901
		C383.83,174.11,368.554,168.666,355.654,158.013z"/>
</g>
<g id="Layer_20">
	<path d="M407.132,352.896c7.251-2.439,10.893-7.529,13.937-13.152c5.69-10.523,8.092-22.041,9.883-33.719
		c0.476-3.1,0.799-6.221,1.296-10.148c-6.079,4.13-9.513,9.364-11.551,15.271C416.009,324.73,411.784,338.472,407.132,352.896z"/>
</g>
<g id="Layer_19">
	<path d="M414.617,184.584c5.526,15.109,16.91,22.603,30.972,27.482C445.574,195.909,430.871,182.66,414.617,184.584z"/>
</g>
<g id="Layer_18">
	<path d="M355.172,360.595c-0.187-2.438,0.281-4.435-0.504-5.336c-7.96-9.13-15.914-18.281-24.297-27.019
		c-6.651-6.936-15.115-8.282-24.426-5.816c9.321,2.658,16.732,8.116,23.489,14.778c7.542,7.436,15.399,14.551,23.132,21.792
		C352.911,359.316,353.382,359.505,355.172,360.595z"/>
</g>
<g id="Layer_17">
	<path d="M412.701,298.698c16.91-9.241,23.929-24.575,16.772-35.813C416.571,271.215,415.773,285.039,412.701,298.698z"/>
</g>
<g id="Layer_16">
	<path d="M407.199,266.479c11.636,1.898,28.478-9.895,27.102-25.021C424.342,240.103,411.206,255.286,407.199,266.479z"/>
</g>
<g id="Layer_15">
	<path d="M407.372,235.634c19.347,1.516,31.896-5.937,33.538-19.621C426.462,216.641,416.426,224.392,407.372,235.634z"/>
</g>
<g id="Layer_14">
	<path d="M371.064,257.91c-11.458-20.188-18.646-29.043-32.372-30.561c5.195,7.24,10.167,14.578,15.578,21.575
		C358.272,254.1,363.845,256.971,371.064,257.91z"/>
</g>
<g id="Layer_13">
	<path d="M370.32,214.32c-5.154-22.997-11.486-33.555-23.296-38.077c3.25,8.549,6.208,17.042,9.711,25.303
		C359.212,207.387,363.765,211.482,370.32,214.32z"/>
</g>
<g id="Layer_12">
	<path d="M335.044,284.809c6.314,4.467,12.212,8.668,18.14,12.823c6.446,4.521,13.327,7.284,22.369,5.113
		C362.953,293.466,352.294,282.092,335.044,284.809z"/>
</g>
<g id="Layer_11">
	<path d="M364.479,361.943c13.338,1.966,24.804-1.993,35.414-9.177c-3.711-5.083-8.887-6.709-14.325-3.721
		C378.354,353.012,371.491,357.615,364.479,361.943z"/>
</g>
<g id="Layer_10">
	<path d="M410.092,293.219c-5.406-2.736-10.594-2.117-15.497,1.047c-5.607,3.62-11.066,7.471-16.403,11.094
		C391.054,309.408,405.03,304.281,410.092,293.219z"/>
</g>
<g id="Layer_9">
	<path d="M369.853,220.12c6.323,9.235,20.136,13.418,33.1,9.395c-3.905-7.586-10.612-9.375-18.251-9.393
		C379.633,220.11,374.564,220.12,369.853,220.12z"/>
</g>
<g id="Layer_8">
	<path d="M372.634,262.225c9.64,8.08,24.498,7.718,32.167-0.783C397.845,255.254,392.424,255.387,372.634,262.225z"/>
</g>
<g id="Layer_6">
	<g>
		<g>
			<path d="M491.238,368.505c0.753-0.216,1.127-0.329,1.864-0.571c-0.688-0.433-1.229-1.104-1.604-1.993
				c-0.373-0.893-0.577-2.005-0.575-3.321c0.004-2.574,2.836-6.566,2.778-6.951c-0.035-0.23-1.626-1.26-2.126-2.16
				c-0.499-0.898-0.783-1.982-0.816-3.251c-0.044-1.672,0.262-3.146,0.948-4.438s1.568-2.242,2.619-2.853
				c1.051-0.607,2.768-1.252,5.119-1.988c8.164-2.555,12.179-4.074,20.016-7.48c-0.979,3.928-1.567,5.872-2.912,9.645
				c-6.317,3.184-9.579,4.604-16.242,6.974c-2.183,0.774-3.557,1.302-4.09,1.655s-0.813,0.867-0.844,1.55
				c-0.032,0.695,0.194,1.064,0.68,1.104c0.486,0.038,1.786-0.292,3.878-1.075c6.351-2.378,9.445-3.814,15.429-7.04
				c-1.464,3.697-2.283,5.497-4.076,8.908c-4.756,3.338-7.249,4.825-12.418,7.27c-1.993,0.939-3.229,1.505-3.646,1.818
				c-0.419,0.315-0.657,0.811-0.72,1.482c-0.039,0.423,0.031,0.739,0.202,0.947s0.394,0.263,0.676,0.16
				c0.282-0.101,0.889-0.363,1.806-0.822c5.273-2.643,7.8-4.296,12.562-8.053c-1.896,3.296-2.925,4.857-5.114,7.74
				c-4.844,6.158-7.62,8.768-13.646,12.211C491.106,374.179,491.16,372.292,491.238,368.505z"/>
			<path d="M483.539,331.553c2.038-0.492,3.055-0.749,5.084-1.277c0.196,4.069,0.304,6.105,0.506,10.171
				c-1.912,0.479-2.87,0.71-4.794,1.143C483.983,337.575,483.816,335.569,483.539,331.553z M490.57,329.759
				c10.646-3.086,20.974-6.486,31.375-10.314c-0.44,4.225-0.782,6.354-1.679,10.557c-9.521,3.998-19.313,7.355-29.306,9.977
				C490.819,335.895,490.734,333.848,490.57,329.759z"/>
			<path d="M502.806,301.378c2.715-1.113,4.073-1.679,6.787-2.831c2.491-1.059,4.326-1.719,5.527-1.957s2.38-0.141,3.561,0.314
				c1.183,0.455,2.16,1.294,2.871,2.537c0.711,1.241,1.169,2.835,1.299,4.781c0.146,2.178-0.052,4.145-0.523,5.866
				c-0.475,1.723-1.225,3.202-2.2,4.419s-2.15,2.256-3.507,3.112c-1.357,0.854-3.372,1.765-6.063,2.687
				c-3.247,1.112-4.876,1.649-8.146,2.68c-2.966,0.933-5.292,1.287-6.979,1.123c-1.685-0.164-3.055-0.953-4.044-2.324
				c-0.987-1.371-1.41-3.324-1.133-5.814c0.233-2.091,0.862-3.938,1.771-5.589c0.907-1.649,1.96-3.019,3.083-4.136
				c1.121-1.117,2.191-2.004,3.222-2.668S500.843,302.183,502.806,301.378z M499.662,311.33c-1.604,0.538-2.619,0.956-3.052,1.263
				c-0.435,0.309-0.68,0.741-0.725,1.302c-0.045,0.563,0.145,0.867,0.555,0.924c0.408,0.055,1.432-0.174,3.06-0.7
				c5.735-1.861,8.594-2.847,14.288-4.913c1.489-0.541,2.457-0.997,2.902-1.359c0.443-0.36,0.655-0.829,0.636-1.396
				c-0.022-0.582-0.244-0.889-0.658-0.918c-0.414-0.031-1.292,0.21-2.635,0.71C508.301,308.377,505.427,309.392,499.662,311.33z"/>
			<path d="M496.715,296.186c1.093-0.777,1.64-1.168,2.737-1.946c0.537-0.743,0.804-1.11,1.337-1.845
				c0.942-0.804,1.417-1.205,2.366-2.008c-0.37,0.75-0.557,1.129-0.937,1.894c3.75-2.654,5.644-3.989,9.454-6.722
				c1.173-0.84,1.801-1.396,1.881-1.662c0.08-0.268-0.074-1.028-0.533-2.229c0.971-0.842,1.455-1.267,2.434-2.12
				c0.693,1.193,1.019,1.808,1.622,3.077c0.852,1.791,1.299,3.191,1.46,4.082s0.083,1.792-0.251,2.695
				c-0.334,0.902-0.851,1.604-1.501,2.1c-0.651,0.494-2.259,1.359-4.807,2.566c-5.204,2.464-7.804,3.65-12.988,5.978
				c-0.217,0.715-0.318,1.076-0.509,1.81c-1.697,0.712-2.548,1.063-4.243,1.765c0.268-0.719,0.406-1.073,0.71-1.774
				c-1.606,0.71-2.405,1.063-4.011,1.765C492.751,300.41,494.134,298.865,496.715,296.186z"/>
		</g>
	</g>
</g>
<g id="Layer_5">
	<g>
		<g>
			<path d="M452.499,298.646c-0.12-3.188-0.197-4.717-0.431-7.588c-1.828-1.063-2.744-1.6-4.579-2.684
				c-0.959-0.564-1.59-0.873-1.898-0.916c-0.308-0.043-0.507,0.107-0.59,0.46c-0.103,0.438,0.025,0.845,0.393,1.21
				c0.368,0.366,1.132,0.855,2.279,1.473c1.218,0.651,1.828,0.979,3.044,1.621c0.019,2.182,0.02,3.317,0.019,5.662
				c-0.807-0.349-1.208-0.521-2.014-0.875c-1.684-0.734-2.971-1.392-3.849-1.953c-0.878-0.563-1.785-1.373-2.662-2.427
				c-0.877-1.052-1.42-2.146-1.628-3.26c-0.208-1.115-0.056-2.324,0.447-3.593c0.486-1.229,1.168-2.16,1.929-2.812
				c0.761-0.649,1.529-0.989,2.274-1.041c0.743-0.052,1.428,0.097,2.085,0.425c0.655,0.328,1.523,0.975,2.632,1.934
				c1.736,1.505,2.601,2.248,4.314,3.734c1.285,1.114,2.356,2.184,3.342,3.195c0.982,1.014,2.007,2.107,3.102,3.291
				s2.196,2.365,2.997,3.574c0.979,1.479,1.292,2.567,0.935,3.23c-0.355,0.664-1.248,0.938-2.561,0.771
				c-1.313-0.166-3.328-0.786-5.968-1.899C454.667,299.575,453.943,299.267,452.499,298.646z M455.89,294.663
				c0.664,0.351,0.996,0.524,1.659,0.873c1.173,0.616,1.911,0.96,2.21,1.039s0.38-0.034,0.244-0.339
				c-0.168-0.375-0.415-0.685-0.725-0.926c-0.312-0.242-1.057-0.699-2.238-1.379c-0.615-0.354-0.922-0.531-1.538-0.887
				C455.665,293.686,455.742,294.008,455.89,294.663z"/>
			<path d="M468.711,312.738c-1.147-0.413-1.721-0.621-2.866-1.043c1.199,0.843,2.143,1.686,2.808,2.544
				c0.665,0.856,1.051,1.729,1.138,2.626c0.108,1.124-0.227,1.938-0.979,2.434c-0.754,0.496-1.741,0.677-2.941,0.531
				c-1.2-0.146-3.21-0.638-6.021-1.521c-9.008-2.826-13.481-4.386-22.35-7.769c-0.024-2.817,0.02-4.211,0.225-6.948
				c8.6,3.38,12.925,4.95,21.605,7.871c2.157,0.728,3.471,1.104,3.935,1.162c0.465,0.058,0.676-0.134,0.629-0.574
				c-0.047-0.462-0.349-0.842-0.896-1.14s-1.985-0.84-4.31-1.648c-8.342-2.898-12.502-4.445-20.776-7.761
				c0.278-2.705,0.475-4.032,0.994-6.607c9.341,4.104,18.797,7.944,28.346,11.541C468.008,308.879,468.29,310.145,468.711,312.738z"
				/>
			<path d="M469.356,330.411c-1.668-0.56-2.5-0.843-4.164-1.428c2.962,1.863,4.472,3.727,4.563,5.681
				c-4.383-1.146-6.563-1.771-10.893-3.116c-0.03-1.295-0.276-2.315-0.758-3.072c-0.479-0.755-1.144-1.335-1.987-1.743
				c-0.847-0.41-2.792-1.102-5.814-2.138c-4.925-1.688-7.371-2.585-12.224-4.479c-0.319-2.868-0.427-4.302-0.528-7.141
				c10.603,3.854,21.164,7.344,31.979,10.555C469.542,326.249,469.468,327.636,469.356,330.411z"/>
			<path d="M468.881,343.188c-9.72-2.55-19.225-5.888-28.438-9.889c-0.722-2.914-1.028-4.39-1.534-7.341
				c9.851,3.997,19.946,7.388,30.227,10.102C469.024,338.916,468.971,340.341,468.881,343.188z M475.334,344.75
				c-1.874-0.416-2.808-0.636-4.668-1.103c0.136-2.838,0.208-4.259,0.352-7.102c1.967,0.499,2.951,0.739,4.928,1.194
				C475.713,340.546,475.588,341.947,475.334,344.75z"/>
			<path d="M459.996,357.682c-0.414-2.519-0.601-3.806-0.928-6.395c1.15,0.427,1.729,0.633,2.892,1.031
				c1.012,0.347,1.698,0.496,2.054,0.466c0.356-0.03,0.528-0.245,0.513-0.645c-0.019-0.396-0.19-0.715-0.523-0.952
				c-0.333-0.239-1.07-0.536-2.204-0.914c-4.893-1.632-7.302-2.569-12.022-4.646c-0.895-0.392-1.531-0.593-1.916-0.592
				c-0.387,0.001-0.517,0.195-0.397,0.589c0.138,0.461,0.458,0.879,0.953,1.254s1.359,0.861,2.609,1.427
				c1.149,0.521,1.729,0.772,2.894,1.268c0.51,2.434,0.791,3.639,1.399,5.995c-1.757-0.857-3.068-1.604-3.972-2.179
				c-0.9-0.572-1.909-1.42-3.059-2.536c-1.15-1.114-2.175-2.308-3.056-3.564c-0.883-1.258-1.63-2.625-2.18-4.123
				c-0.702-1.912-0.845-3.278-0.424-4.072s1.306-1.124,2.624-1s3.33,0.727,6.018,1.743c3.136,1.188,4.718,1.746,7.903,2.787
				c2.381,0.777,4.202,1.513,5.425,2.258c1.225,0.745,2.313,1.874,3.229,3.395c0.918,1.519,1.327,3.172,1.289,4.971
				c-0.037,1.788-0.496,3.194-1.307,4.21c-0.809,1.016-1.771,1.523-2.929,1.521C463.724,358.976,462.102,358.566,459.996,357.682z"
				/>
			<path d="M463.845,374.469c-1.382-1.104-2.056-1.701-3.368-2.971c-1.204-1.165-2.094-2.178-2.729-2.938
				c-0.636-0.758-1.351-1.675-2.176-2.733c-0.827-1.062-1.658-2.133-2.473-3.229c-0.813-1.096-1.602-2.204-2.31-3.351
				c-0.791-1.28-1.311-2.299-1.542-3.035c-0.232-0.736-0.176-1.188,0.161-1.343s0.897-0.094,1.674,0.182
				c0.775,0.276,2.055,0.907,3.842,1.835c2.158,1.12,3.253,1.647,5.474,2.618c2.012,0.881,3.642,1.714,4.815,2.582
				s2.126,1.981,2.826,3.366s1.027,2.967,1.053,4.76c0.022,1.505-0.146,2.726-0.458,3.636c-0.311,0.911-0.695,1.514-1.161,1.793
				c-0.464,0.281-0.921,0.351-1.4,0.208C465.591,375.708,464.844,375.268,463.845,374.469z M463.765,368.889
				c0.913,0.492,1.49,0.721,1.72,0.721c0.228,0,0.321-0.198,0.281-0.592c-0.04-0.392-0.189-0.708-0.457-0.953
				c-0.266-0.247-0.889-0.595-1.851-1.073c-3.391-1.694-5.038-2.684-8.217-4.879c-0.832-0.574-1.339-0.906-1.529-0.971
				c-0.188-0.063-0.199,0.08-0.028,0.428c0.178,0.354,0.401,0.674,0.671,0.956c0.271,0.28,0.76,0.703,1.476,1.244
				C458.887,366.078,460.478,367.115,463.765,368.889z"/>
		</g>
	</g>
</g>
<g id="Layer_4">
	<g>
		<g>
			<path d="M545.536,73.046c-2.024-0.998-3.021-1.529-4.98-2.661c-0.315-0.574-0.471-0.861-0.758-1.44
				c-0.611-1.234-0.972-2.065-1.195-2.463c-0.225-0.398-0.514-0.72-0.87-0.968c-0.29-0.201-0.466-0.208-0.481,0.021
				s0.088,0.662,0.349,1.286c0.354,0.846,0.685,1.477,0.946,1.905c0.263,0.428,0.709,0.989,1.354,1.671
				c0.643,0.682,1.825,1.803,3.635,3.289c2.4,1.975,4.312,3.509,5.618,4.729c1.306,1.22,2.797,2.745,4.391,4.319
				c1.78,1.76,2.935,2.75,3.469,3.299c0.535,0.549,0.622,0.791,0.28,0.785c-0.342-0.006-1.081-0.257-2.247-0.771
				c-1.292-0.569-2.67-1.249-4.213-2.097c-1.543-0.848-3.057-1.76-4.491-2.758c-1.434-0.998-3.246-2.37-5.24-4.403
				c-0.461-0.47-0.688-0.713-1.138-1.208c2.125,1.134,3.113,1.533,5.033,2.47c0.57,0.63,0.856,0.934,1.442,1.52
				c1.238,1.244,2.136,1.98,2.638,2.363c0.502,0.383,0.938,0.659,1.298,0.828c0.387,0.182,0.526,0.203,0.427,0.061
				c-0.099-0.142-0.554-0.553-1.353-1.296c-1.102-1.023-1.871-1.793-2.35-2.181c-0.482-0.395-2.421-1.852-5.606-4.352
				c-2.688-2.108-4.619-3.898-5.688-5.22c-1.067-1.322-1.992-2.774-2.644-4.371c-0.924-2.267-1.086-3.91-0.905-4.803
				s0.731-1.368,1.466-1.442c0.735-0.074,1.448,0.168,2.461,1.066c1.005,0.892,1.923,1.868,2.791,2.912
				c0.869,1.044,1.654,2.06,2.362,3.069c0.708,1.009,1.277,1.827,1.665,2.487c0.388,0.66,0.909,1.627,1.65,2.894
				C544.989,72.172,545.166,72.463,545.536,73.046z"/>
			<path d="M554.129,71.834c4.427,5.765,7.107,10.341,12.035,15.718c1.951,2.128,3.074,3.064,3.615,3.552s0.83,0.786,0.904,0.958
				c0.077,0.172-0.115,0.196-0.543,0.109c-0.426-0.087-1.315-0.358-2.681-0.823c-1.193-0.407-1.788-0.611-2.971-1.034
				c-1.291-0.702-1.953-1.097-3.296-2.007c0.831,0.308,1.32,0.468,1.467,0.487c0.145,0.019,0.05-0.086-0.287-0.33
				c-0.163-0.118-0.98-0.642-2.508-1.799c-7.341-5.773-13.488-13.021-17.725-21.359c1.8,1.239,2.721,1.816,4.595,2.889
				c4.205,6.856,7.447,10.813,13.817,16.825c-5.198-5.602-7.645-9.464-11.271-15.438C551.191,70.564,552.16,71.012,554.129,71.834z"
				/>
			<path d="M573.624,82.256c-2.224-0.45-3.329-0.695-5.521-1.23c-0.431-0.494-0.646-0.736-1.078-1.212
				c-0.927-1.014-1.573-1.63-1.931-1.912c-0.354-0.282-0.738-0.472-1.154-0.581c-0.339-0.088-0.479-0.041-0.424,0.149
				c0.059,0.19,0.313,0.521,0.761,1.007c0.605,0.658,1.094,1.168,1.462,1.51c0.367,0.342,0.934,0.764,1.702,1.267
				c0.768,0.503,2.147,1.306,4.134,2.431c2.637,1.495,4.582,2.842,5.819,4.038c1.239,1.196,2.525,2.614,3.604,4.118
				c1.203,1.68,1.684,2.583,1.745,3.066c0.061,0.483-0.26,0.658-0.88,0.612s-1.485-0.305-2.639-0.731
				c-1.273-0.472-2.504-0.989-3.77-1.6c-1.267-0.611-2.417-1.241-3.459-1.963c-1.042-0.722-2.3-1.737-3.883-3.405
				c-0.366-0.386-0.555-0.585-0.932-1c2.116,0.665,3.18,0.986,5.301,1.616c0.463,0.547,0.686,0.806,1.122,1.301
				c0.928,1.051,1.529,1.637,1.901,1.941c0.372,0.304,0.735,0.508,1.104,0.628c0.396,0.129,0.595,0.137,0.596,0.013
				s-0.244-0.466-0.789-1.101c-0.75-0.873-1.384-1.547-1.811-1.863c-0.437-0.322-2.244-1.431-5.521-3.448
				c-2.763-1.701-4.751-3.262-5.937-4.36c-1.188-1.098-2.314-2.291-3.374-3.55c-1.506-1.788-2.376-2.963-2.678-3.617
				c-0.3-0.654-0.176-1.007,0.359-1.088s1.395,0.099,2.63,0.485c1.228,0.383,2.46,0.831,3.715,1.365
				c1.255,0.534,2.442,1.096,3.545,1.727c1.104,0.631,1.973,1.194,2.589,1.692c0.618,0.498,1.475,1.266,2.511,2.38
				C572.925,81.454,573.158,81.716,573.624,82.256z"/>
			<path d="M571.555,74.831c1.775,0.932,2.622,1.448,4.225,2.59c0.671,0.064,1.01,0.093,1.686,0.144
				c1.634,1.155,2.399,1.791,3.833,3.188c-0.689-0.067-1.037-0.104-1.726-0.181c4.817,4.65,6.884,9.096,9.257,13.833
				c0.729,1.457,1.033,2.114,1.209,2.298s0.7,0.434,1.566,0.761c0.394,1.208,0.497,1.727,0.508,2.617
				c-0.752-0.372-1.133-0.554-1.896-0.912c-1.079-0.505-1.872-0.887-2.37-1.167c-0.498-0.28-0.98-0.625-1.496-1.058
				c-0.514-0.433-0.938-0.863-1.283-1.315c-0.347-0.452-0.973-1.406-2.404-3.543c-2.927-4.364-4.985-8.151-9.414-12.401
				c-0.538-0.091-0.808-0.138-1.343-0.235c-1.367-1.319-2.079-1.933-3.553-3.083c0.517,0.098,0.775,0.144,1.295,0.233
				c-1.491-1.14-2.269-1.666-3.871-2.648C568.036,74.414,569.19,74.589,571.555,74.831z"/>
			<path d="M602.656,93.14c-2.997-0.895-4.527-1.308-7.642-2.019c1.147,2.983,1.643,4.16,2.158,6.319
				c0.271,1.129,0.396,1.786,0.536,2.122s0.354,0.566,0.658,0.707c0.381,0.175,0.632,0.109,0.733-0.23
				c0.103-0.339,0.118-1.086-0.16-2.407c-0.299-1.401-0.532-2.178-1.1-3.82c2.201,0.637,3.287,0.983,5.419,1.72
				c0.243,1.002,0.352,1.494,0.499,2.419c0.313,1.936,0.241,3.193,0.07,3.99s-0.583,1.5-1.223,2.063
				c-0.642,0.563-1.391,0.759-2.151,0.689c-0.762-0.07-1.587-0.441-2.508-1.036c-0.896-0.577-1.635-1.206-2.311-1.896
				c-0.674-0.69-1.243-1.381-1.748-2.136c-0.504-0.755-0.979-1.532-1.418-2.386c-0.438-0.854-0.969-2.057-1.911-4.003
				c-1.479-3.054-2.402-5.288-4.638-8.392c-1.674-2.326-2.981-3.84-3.683-4.882s-0.892-1.735-0.479-2.208
				c0.411-0.473,1.262-0.687,2.673-0.628c1.729,0.072,3.629,0.442,5.662,1.187c2.034,0.745,3.996,1.76,5.727,3.18
				c1.729,1.42,3.617,3.526,5.115,6.82C601.761,90.114,602.104,91.08,602.656,93.14z M594.288,86.201
				c-0.521-0.881-0.794-1.303-1.378-2.115c-1.034-1.437-1.86-2.259-2.321-2.639c-0.461-0.38-0.88-0.577-1.231-0.605
				c-0.438-0.035-0.555,0.093-0.361,0.392c0.19,0.299,0.946,1.107,2.079,2.631c0.589,0.792,0.868,1.204,1.396,2.063
				C593.199,86.032,593.562,86.087,594.288,86.201z"/>
			<path d="M600.309,78.533c1.116,0.833,1.636,1.289,2.594,2.274c-0.52-0.934-0.833-1.554-0.68-1.938
				c0.156-0.384,0.666-0.527,1.553-0.429c1.728,0.19,7.156,3.579,7.156,3.579c0.021-0.015-0.736-1.561-0.7-1.874
				c0.035-0.313,0.387-0.346,1.086-0.115c0.924,0.305,2.066,0.887,3.387,1.807s2.539,1.979,3.584,3.235
				c1.045,1.256,2.495,3.287,3.604,6.724c1.392,11.621,2.836,21.431-6.521,30.436c-0.904-1.989-1.408-2.923-2.515-4.679
				c7.31-7.303,7.854-14.908,4.822-25.89c-0.99-3.597-2.184-5.388-2.707-6.122c-0.521-0.734-1.008-1.142-1.405-1.263
				c-0.409-0.125-0.446,0.117-0.15,0.756c0.296,0.639,1.396,2.35,2.448,5.878c3.197,10.708,2.837,18.131-3.977,25.185
				c-1.172-1.68-1.808-2.464-3.163-3.93c5.158-6.113,5.025-12.573,1.578-22.357c-1.329-3.772-2.753-5.521-3.286-6.139
				c-0.531-0.618-1.054-0.932-1.483-0.985c-0.271-0.034-0.383,0.084-0.339,0.363c0.044,0.279,0.218,0.639,0.511,1.095
				s0.954,1.425,1.767,3.11c4.674,9.686,5.24,17.332,0.123,23.715c-1.372-1.408-2.096-2.073-3.599-3.329
				c4.507-12.579-2.006-20.557-9.721-29.562C596.696,78.267,597.902,78.368,600.309,78.533z"/>
		</g>
	</g>
</g>
<g id="Layer_2">
	<path d="M524.098,349c-6.25,13-15.763,24.889-25.926,32.841c-11.36,8.892-13.501,20.978-13.79,34.557
		C508.03,405.748,525.845,368.448,524.098,349z"/>
</g>
<g id="Layer_3">
	<g>
		<g>
			<path d="M357.335,76.511c-14.77,7.217-19.593,31.582-5.123,41.671c-1.42,2.746-2.029,4.239-3.004,7.511
				c-16.211-9.524-17.936-37.955,0.012-46.762C352.078,77.571,353.705,77.082,357.335,76.511z"/>
			<path d="M369.782,75.7c-2.268,1.009-3.306,1.615-5.178,3.029c-3.701,0.315-5.455,0.341-9.378,0.782
				c1.906-1.595,2.986-2.271,5.387-3.374C364.506,75.848,366.198,75.908,369.782,75.7z M362.881,80.16
				c-5.833,9.29-13.427,19.207-5.006,29.813c-1.919,2.146-2.8,3.311-4.362,5.889c-11.115-8.368-7.951-25.398-0.021-34.732
				C357.399,80.609,359.162,80.538,362.881,80.16z"/>
			<path d="M375.433,79.18c-1.017,0.793-1.502,1.217-2.428,2.115c1.532-0.936,3.07-1.571,4.521-2.016
				c1.45-0.444,2.812-0.692,4.076-0.799c1.584-0.134,2.549-0.042,2.953,0.333c0.404,0.375,0.325,0.925-0.221,1.712
				s-1.776,2.165-3.478,4.474c-5.457,7.403-7.922,11.376-8.15,13.978c-2.527,1.289-3.748,1.981-6.07,3.517
				c-1.883-3.148-0.157-7.441,4.815-15.674c1.235-2.045,2.07-3.105,2.248-3.484c0.178-0.379-0.045-0.531-0.686-0.475
				c-0.672,0.058-1.281,0.312-1.811,0.796c-0.53,0.484-1.602,1.725-2.874,4.099c-4.566,8.518-5.962,12.624-3.448,15.95
				c-2.247,1.623-3.313,2.505-5.286,4.458c-6.941-10.531,0.767-19.719,6.534-28.322C369.824,79.493,371.687,79.329,375.433,79.18z"
				/>
			<path d="M409.838,71.424c-5.179,7.771-11.194,15.475-19.223,20.482c-2.976,0.997-4.393,1.444-7.195,2.473
				c0.429-0.311,0.662-0.482,1.155-0.861c-0.959,0.545-1.851,0.998-2.719,1.412c-0.868,0.414-1.709,0.789-2.58,1.15
				c-0.991,0.411-1.749,0.703-2.316,0.848s-0.953,0.163-1.118,0.016s-0.189-0.389-0.04-0.735c0.149-0.346,0.573-1.08,1.688-2.675
				c3.5-5.011,6.569-10.572,12.808-15.925c3.562-0.664,5.308-1.082,8.722-2.097c-5.554,5.624-8.799,10.708-13.313,15.484
				c-1.292,1.366-1.849,1.924-1.93,2.078c-0.081,0.154,0.148,0.131,0.682-0.052c0.573-0.196,1.021-0.406,1.358-0.646
				c0.337-0.24,1.115-0.867,2.565-2.324c4.769-4.787,7.985-9.657,13.218-15.354C404.968,73.571,406.611,72.925,409.838,71.424z"/>
			<path d="M427.637,60.439c-2.442,6.925-4.563,9.636-10.09,15.388c-3.066,4.851-4.916,6.542-9.771,9.182
				c-2.613,1.374-3.953,1.968-6.69,3.092c2.554-1.51,6.436-5.068,6.436-5.068c-0.004-0.004-6.556,4.734-9.538,6.285
				c-2.393,0.9-3.607,1.316-6.048,2.142c5.049-2.618,8.363-4.646,14.401-10.409c2.659-4.117,3.448-6.395,4.952-10.321
				c2.671-1.314,3.977-2.038,6.521-3.633c-1.332,4.849-3.485,8.229-3.485,8.229c0.01,0.007,5.804-8.4,6.765-10.413
				C423.72,63.059,424.654,62.429,427.637,60.439z"/>
		</g>
	</g>
</g>
</svg>
