<?xml version="1.0" encoding="UTF-8" standalone="no"?>
<!-- Generator: Adobe Illustrator 16.0.0, SVG Export Plug-In . SVG Version: 6.00 Build 0)  -->

<svg
   version="1.1"
   id="Layer_1"
   x="0px"
   y="0px"
   width="960"
   height="560"
   viewBox="0 0 960 560"
   enable-background="new 0 0 960 560"
   xml:space="preserve"
   sodipodi:docname="skorpion_logo_black.svg"
   inkscape:export-filename="skorpion_logo_black.svg"
   inkscape:export-xdpi="96"
   inkscape:export-ydpi="96"
   xmlns:inkscape="http://www.inkscape.org/namespaces/inkscape"
   xmlns:sodipodi="http://sodipodi.sourceforge.net/DTD/sodipodi-0.dtd"
   xmlns="http://www.w3.org/2000/svg"
   xmlns:svg="http://www.w3.org/2000/svg"><defs
   id="defs121" /><sodipodi:namedview
   id="namedview119"
   pagecolor="#ffffff"
   bordercolor="#000000"
   borderopacity="0.25"
   inkscape:showpageshadow="2"
   inkscape:pageopacity="0.0"
   inkscape:pagecheckerboard="0"
   inkscape:deskcolor="#d1d1d1"
   showgrid="false" />
<path
   fill-rule="evenodd"
   clip-rule="evenodd"
   d="m 540.966,25 c 3.342,0.65 6.742,1.09 10.017,1.986 22.573,6.18 40.117,19.323 53.104,38.685 0.644,0.96 1.188,1.994 1.695,3.034 0.287,0.588 0.403,1.26 0.598,1.895 -12.905,3.832 -24.175,0.494 -32.304,-9.547 -1.778,-2.196 -3.648,-4.328 -5.285,-6.625 -8.308,-11.658 -19.278,-19.474 -33.088,-23.335 -2.485,-0.695 -4.865,-1.764 -7.242,-3.78 3.502,-0.771 7.004,-1.542 10.506,-2.312 C 539.633,25 540.299,25 540.966,25 Z"
   id="path2"
   style="fill:#000000" /><path
   fill-rule="evenodd"
   clip-rule="evenodd"
   d="m 515.729,279.309 c 17.678,29.231 1.279,87.581 -28.123,100.357 -0.531,-6.558 -1.023,-12.899 -1.564,-19.236 -0.863,-10.087 -1.936,-20.16 -2.596,-30.259 -0.784,-11.998 1.199,-23.271 10.613,-31.864 6.978,-6.37 14.202,-12.469 21.67,-18.998 z"
   id="path4"
   style="fill:#000000" /><path
   fill-rule="evenodd"
   clip-rule="evenodd"
   d="m 609.936,126.178 c -5.438,-19.826 -20.998,-27.666 -38.154,-33.38 -11.736,-3.908 -23.344,-7.743 -32.004,-17.322 -6.3,-6.967 -9.106,-13.72 -8.546,-23.059 1.712,1.554 3.051,2.583 4.169,3.815 11.36,12.519 25.436,18.821 42.376,18.93 6.48,0.041 12.955,0.683 19.438,0.866 17.867,0.504 27.021,10.556 26.078,28.472 -0.503,9.555 -4.67,16.627 -13.357,21.678 z"
   id="path6"
   style="fill:#000000" /><path
   fill-rule="evenodd"
   clip-rule="evenodd"
   d="m 486.231,291.543 c -0.121,-13.471 -0.872,-26.228 -0.034,-38.879 0.333,-5.028 3.303,-10.558 6.633,-14.561 5.768,-6.932 12.753,-12.851 19.228,-19.195 0.642,0.177 1.283,0.354 1.925,0.53 0.659,13.801 2.899,27.761 1.535,41.359 -1.387,13.817 -10.991,23.397 -23.828,29.107 -1.316,0.585 -2.775,0.846 -5.459,1.639 z"
   id="path8"
   style="fill:#000000" /><path
   fill-rule="evenodd"
   clip-rule="evenodd"
   d="m 629.529,374.616 c -0.903,2.686 -1.569,4.65 -2.225,6.62 -1.308,3.932 -2.854,7.804 -3.865,11.811 -2.667,10.582 0.411,15.499 10.747,18.784 3.176,1.01 6.75,2.562 8.797,4.995 6.435,7.65 4.31,26.325 -3.312,32.747 -0.801,0.675 -2.629,1.194 -3.341,0.753 -13.024,-8.063 -25.005,-17.504 -26.988,-33.863 -2.018,-16.632 3.685,-30.766 17.621,-40.931 0.466,-0.34 1.125,-0.414 2.566,-0.916 z"
   id="path10"
   style="fill:#000000" /><path
   fill-rule="evenodd"
   clip-rule="evenodd"
   d="m 507.524,469.844 c -12.387,0.509 -20.356,-6.126 -27.068,-15.947 -6.557,9.591 -14.592,16.434 -27.065,15.996 -1.171,-8.145 -0.787,-15.961 4.521,-22.359 6.249,-7.53 13.053,-14.616 19.899,-21.618 0.906,-0.926 4.306,-1.016 5.156,-0.139 6.938,7.145 13.874,14.343 20.148,22.063 5.078,6.247 5.658,13.914 4.409,22.004 z m -27.073,-18.689 c 3.666,-7.944 3.406,-14.89 -0.049,-22.56 -3.315,7.732 -3.749,14.725 0.049,22.56 z"
   id="path12"
   style="fill:#000000" /><path
   fill-rule="evenodd"
   clip-rule="evenodd"
   d="m 668.457,379.218 c 20.486,9.563 28.803,35.98 17.709,54.648 -6.118,10.295 -15.338,17.249 -25.482,23.326 -2.1,-6.302 -4.257,-12.183 -6.014,-18.181 -3.309,-11.298 1.011,-19.316 12.006,-22.779 8.834,-2.781 11.552,-7.097 9.438,-16.146 -1.047,-4.483 -2.968,-8.767 -4.561,-13.117 -0.89,-2.433 -1.917,-4.816 -3.096,-7.751 z"
   id="path14"
   style="fill:#000000" /><path
   fill-rule="evenodd"
   clip-rule="evenodd"
   d="m 650.896,443.425 c 5.883,13.961 6.503,28.276 -2.772,42.243 -8.033,12.096 -18.45,21.618 -31.085,30.766 0.961,-20.077 2.43,-38.609 16.977,-53.332 6.143,-6.219 11.436,-13.278 16.88,-19.677 z"
   id="path16"
   style="fill:#000000" /><path
   fill-rule="evenodd"
   clip-rule="evenodd"
   d="m 497.746,167.802 c 16.038,9.49 20.562,28.683 11.15,44.716 -5.635,9.599 -14.336,15.968 -23.866,22.569 -3.588,-16.784 -6.098,-32.779 5.703,-47.176 4.633,-5.652 8.42,-11.63 7.013,-20.109 z"
   id="path18"
   style="fill:#000000" /><path
   fill-rule="evenodd"
   clip-rule="evenodd"
   d="m 482.985,416.896 c 0.289,-13.579 2.429,-25.665 13.79,-34.555 10.163,-7.952 19.701,-16.705 29.764,-25.317 1.747,19.449 -19.905,49.224 -43.554,59.872 z"
   id="path20"
   style="fill:#000000" /><path
   fill-rule="evenodd"
   clip-rule="evenodd"
   d="m 527.479,505.016 c 11.422,0.486 22.404,1.71 30.593,11.295 4.077,4.773 6.124,5.237 16.394,6.095 -5.119,9.02 -16.674,12.665 -28.204,8.897 -12.326,-4.028 -20.126,-14.758 -18.783,-26.287 z"
   id="path22"
   style="fill:#000000" /><path
   fill-rule="evenodd"
   clip-rule="evenodd"
   d="m 496.316,476.112 c 16.436,-0.935 24.953,6.863 25.365,22.86 0.123,4.783 0.458,9.561 0.695,14.34 -13.578,0.394 -28.181,-20.15 -26.06,-37.2 z"
   id="path24"
   style="fill:#000000" /><path
   fill-rule="evenodd"
   clip-rule="evenodd"
   d="m 621.493,122.196 c -0.904,18.349 -27.794,46.317 -42.637,44.659 1.633,-13.286 18.993,-31.469 42.637,-44.659 z"
   id="path26"
   style="fill:#000000" /><path
   fill-rule="evenodd"
   clip-rule="evenodd"
   d="m 611.657,508.928 c 0.392,14.408 -21.016,32.393 -43.227,25.772 9.366,-17.091 24.331,-24.691 43.227,-25.772 z"
   id="path28"
   style="fill:#000000" /><path
   fill-rule="evenodd"
   clip-rule="evenodd"
   d="m 604.297,158.013 c -7.867,17.771 -29.726,30.294 -58.987,35.931 4.594,-6.326 8.011,-12.606 15.252,-14.901 15.559,-4.933 30.835,-10.377 43.735,-21.03 z"
   id="path30"
   style="fill:#000000" /><path
   fill-rule="evenodd"
   clip-rule="evenodd"
   d="m 552.819,352.896 c -7.251,-2.439 -10.893,-7.529 -13.935,-13.152 -5.692,-10.523 -8.092,-22.041 -9.883,-33.719 -0.476,-3.098 -0.799,-6.219 -1.296,-10.148 6.079,4.13 9.513,9.364 11.551,15.271 4.686,13.582 8.911,27.324 13.563,41.748 z"
   id="path32"
   style="fill:#000000" /><path
   fill-rule="evenodd"
   clip-rule="evenodd"
   d="m 545.334,184.584 c -5.526,15.109 -16.91,22.603 -30.972,27.482 0.015,-16.157 14.718,-29.406 30.972,-27.482 z"
   id="path34"
   style="fill:#000000" /><path
   fill-rule="evenodd"
   clip-rule="evenodd"
   d="m 604.779,360.595 c 0.187,-2.439 -0.281,-4.435 0.504,-5.336 7.96,-9.13 15.914,-18.281 24.297,-27.019 6.651,-6.934 15.115,-8.282 24.426,-5.816 -9.321,2.658 -16.732,8.116 -23.489,14.778 -7.542,7.436 -15.399,14.551 -23.132,21.792 -0.345,0.322 -0.816,0.511 -2.606,1.601 z"
   id="path36"
   style="fill:#000000" /><path
   fill-rule="evenodd"
   clip-rule="evenodd"
   d="m 547.25,298.698 c -16.91,-9.241 -23.929,-24.575 -16.774,-35.813 12.904,8.33 13.702,22.154 16.774,35.813 z"
   id="path38"
   style="fill:#000000" /><path
   fill-rule="evenodd"
   clip-rule="evenodd"
   d="m 552.752,266.479 c -11.636,1.898 -28.478,-9.895 -27.102,-25.021 9.959,-1.355 23.095,13.828 27.102,25.021 z"
   id="path40"
   style="fill:#000000" /><path
   fill-rule="evenodd"
   clip-rule="evenodd"
   d="m 552.579,235.634 c -19.347,1.516 -31.896,-5.937 -33.538,-19.621 14.448,0.628 24.484,8.379 33.538,19.621 z"
   id="path42"
   style="fill:#000000" /><path
   fill-rule="evenodd"
   clip-rule="evenodd"
   d="m 588.887,257.91 c 11.458,-20.188 18.646,-29.043 32.372,-30.561 -5.195,7.24 -10.167,14.578 -15.578,21.575 -4.002,5.176 -9.575,8.047 -16.794,8.986 z"
   id="path44"
   style="fill:#000000" /><path
   fill-rule="evenodd"
   clip-rule="evenodd"
   d="m 589.631,214.32 c 5.154,-22.997 11.486,-33.555 23.296,-38.077 -3.25,8.549 -6.208,17.042 -9.711,25.303 -2.477,5.841 -7.029,9.936 -13.585,12.774 z"
   id="path46"
   style="fill:#000000" /><path
   fill-rule="evenodd"
   clip-rule="evenodd"
   d="m 624.907,284.809 c -6.314,4.467 -12.212,8.667 -18.14,12.823 -6.446,4.519 -13.327,7.284 -22.369,5.113 12.6,-9.279 23.259,-20.653 40.509,-17.936 z"
   id="path48"
   style="fill:#000000" /><path
   fill-rule="evenodd"
   clip-rule="evenodd"
   d="m 595.473,361.943 c -13.338,1.966 -24.804,-1.993 -35.414,-9.175 3.711,-5.083 8.887,-6.709 14.325,-3.721 7.214,3.965 14.076,8.568 21.089,12.896 z"
   id="path50"
   style="fill:#000000" /><path
   fill-rule="evenodd"
   clip-rule="evenodd"
   d="m 549.859,293.219 c 5.406,-2.736 10.594,-2.118 15.497,1.047 5.607,3.62 11.066,7.469 16.403,11.092 -12.862,4.05 -26.838,-1.077 -31.9,-12.139 z"
   id="path52"
   style="fill:#000000" /><path
   fill-rule="evenodd"
   clip-rule="evenodd"
   d="m 590.099,220.12 c -6.323,9.235 -20.136,13.418 -33.1,9.395 3.905,-7.586 10.612,-9.375 18.251,-9.393 5.068,-0.012 10.137,-0.002 14.849,-0.002 z"
   id="path54"
   style="fill:#000000" /><path
   fill-rule="evenodd"
   clip-rule="evenodd"
   d="m 587.317,262.225 c -9.64,8.08 -24.498,7.718 -32.167,-0.783 6.956,-6.188 12.377,-6.055 32.167,0.783 z"
   id="path56"
   style="fill:#000000" /><path
   fill-rule="evenodd"
   clip-rule="evenodd"
   fill="#ffffff"
   d="m 480.451,451.155 c -3.798,-7.835 -3.364,-14.828 -0.049,-22.56 3.455,7.671 3.715,14.616 0.049,22.56 z"
   id="path58"
   style="fill:#000000" /><path
   fill-rule="evenodd"
   clip-rule="evenodd"
   d="m 418.985,25 c -3.342,0.65 -6.742,1.09 -10.017,1.986 -22.573,6.18 -40.117,19.323 -53.104,38.685 -0.644,0.96 -1.188,1.994 -1.695,3.034 -0.287,0.588 -0.403,1.26 -0.598,1.895 12.905,3.832 24.175,0.494 32.304,-9.547 1.778,-2.196 3.648,-4.328 5.285,-6.625 8.308,-11.658 19.278,-19.474 33.088,-23.335 2.485,-0.695 4.865,-1.764 7.242,-3.78 -3.502,-0.771 -7.004,-1.542 -10.506,-2.312 C 420.318,25 419.652,25 418.985,25 Z"
   id="path60"
   style="fill:#000000" /><path
   fill-rule="evenodd"
   clip-rule="evenodd"
   d="m 444.223,279.309 c -17.678,29.231 -1.279,87.581 28.123,100.357 0.531,-6.558 1.023,-12.899 1.564,-19.236 0.863,-10.087 1.936,-20.16 2.596,-30.259 0.784,-11.998 -1.199,-23.271 -10.613,-31.864 -6.979,-6.37 -14.203,-12.469 -21.67,-18.998 z"
   id="path62"
   style="fill:#000000" /><path
   fill-rule="evenodd"
   clip-rule="evenodd"
   d="m 350.016,126.178 c 5.438,-19.826 20.998,-27.666 38.154,-33.38 11.736,-3.908 23.344,-7.743 32.004,-17.322 6.3,-6.967 9.106,-13.72 8.546,-23.059 -1.712,1.554 -3.051,2.583 -4.169,3.815 -11.36,12.519 -25.436,18.821 -42.376,18.93 -6.48,0.041 -12.955,0.683 -19.438,0.866 -17.867,0.504 -27.021,10.556 -26.078,28.472 0.502,9.555 4.669,16.627 13.357,21.678 z"
   id="path64"
   style="fill:#000000" /><path
   fill-rule="evenodd"
   clip-rule="evenodd"
   d="m 473.72,291.543 c 0.121,-13.471 0.872,-26.228 0.034,-38.879 -0.333,-5.028 -3.303,-10.558 -6.633,-14.561 -5.768,-6.932 -12.753,-12.851 -19.228,-19.195 -0.642,0.177 -1.283,0.354 -1.925,0.53 -0.659,13.801 -2.899,27.761 -1.535,41.359 1.387,13.818 10.991,23.397 23.828,29.107 1.316,0.585 2.775,0.846 5.459,1.639 z"
   id="path66"
   style="fill:#000000" /><path
   fill-rule="evenodd"
   clip-rule="evenodd"
   d="m 330.422,374.616 c 0.903,2.686 1.569,4.65 2.225,6.62 1.308,3.932 2.854,7.804 3.865,11.811 2.667,10.582 -0.411,15.499 -10.747,18.784 -3.176,1.01 -6.75,2.562 -8.797,4.995 -6.435,7.65 -4.31,26.325 3.312,32.747 0.801,0.675 2.629,1.194 3.341,0.753 13.024,-8.063 25.005,-17.504 26.988,-33.863 2.018,-16.632 -3.685,-30.766 -17.621,-40.931 -0.466,-0.34 -1.125,-0.414 -2.566,-0.916 z"
   id="path68"
   style="fill:#000000" /><path
   fill-rule="evenodd"
   clip-rule="evenodd"
   d="m 291.494,379.218 c -20.486,9.563 -28.803,35.98 -17.709,54.648 6.118,10.295 15.338,17.249 25.482,23.326 2.1,-6.302 4.257,-12.183 6.014,-18.181 3.309,-11.298 -1.011,-19.316 -12.006,-22.779 -8.834,-2.781 -11.552,-7.097 -9.438,-16.146 1.047,-4.483 2.968,-8.767 4.561,-13.117 0.89,-2.433 1.917,-4.816 3.096,-7.751 z"
   id="path70"
   style="fill:#000000" /><path
   fill-rule="evenodd"
   clip-rule="evenodd"
   d="m 309.055,443.425 c -5.883,13.961 -6.503,28.276 2.772,42.243 8.033,12.096 18.45,21.618 31.085,30.766 -0.961,-20.077 -2.43,-38.609 -16.977,-53.332 -6.143,-6.219 -11.436,-13.278 -16.88,-19.677 z"
   id="path72"
   style="fill:#000000" /><path
   fill-rule="evenodd"
   clip-rule="evenodd"
   d="m 462.205,167.802 c -16.038,9.49 -20.562,28.683 -11.15,44.716 5.635,9.599 14.336,15.968 23.866,22.569 3.588,-16.784 6.098,-32.779 -5.703,-47.176 -4.633,-5.652 -8.42,-11.63 -7.013,-20.109 z"
   id="path74"
   style="fill:#000000" /><path
   fill-rule="evenodd"
   clip-rule="evenodd"
   d="m 476.966,416.896 c -0.289,-13.579 -2.429,-25.665 -13.79,-34.555 -10.163,-7.952 -19.701,-16.705 -29.764,-25.317 -1.747,19.449 19.905,49.224 43.554,59.872 z"
   id="path76"
   style="fill:#000000" /><path
   fill-rule="evenodd"
   clip-rule="evenodd"
   d="m 432.473,505.016 c -11.422,0.486 -22.404,1.71 -30.593,11.295 -4.077,4.773 -6.124,5.237 -16.394,6.095 5.119,9.02 16.674,12.665 28.204,8.897 12.326,-4.028 20.125,-14.758 18.783,-26.287 z"
   id="path78"
   style="fill:#000000" /><path
   fill-rule="evenodd"
   clip-rule="evenodd"
   d="m 463.635,476.112 c -16.436,-0.935 -24.953,6.863 -25.365,22.86 -0.123,4.783 -0.458,9.561 -0.695,14.34 13.578,0.394 28.181,-20.15 26.06,-37.2 z"
   id="path80"
   style="fill:#000000" /><path
   fill-rule="evenodd"
   clip-rule="evenodd"
   d="m 338.458,122.196 c 0.904,18.349 27.794,46.317 42.637,44.659 -1.633,-13.286 -18.992,-31.469 -42.637,-44.659 z"
   id="path82"
   style="fill:#000000" /><path
   fill-rule="evenodd"
   clip-rule="evenodd"
   d="m 348.294,508.928 c -0.392,14.408 21.016,32.393 43.227,25.772 -9.366,-17.091 -24.331,-24.691 -43.227,-25.772 z"
   id="path84"
   style="fill:#000000" /><path
   fill-rule="evenodd"
   clip-rule="evenodd"
   d="m 355.654,158.013 c 7.867,17.771 29.726,30.294 58.987,35.931 -4.594,-6.326 -8.011,-12.606 -15.252,-14.901 -15.559,-4.933 -30.835,-10.377 -43.735,-21.03 z"
   id="path86"
   style="fill:#000000" /><path
   fill-rule="evenodd"
   clip-rule="evenodd"
   d="m 407.132,352.896 c 7.251,-2.439 10.893,-7.529 13.935,-13.152 5.692,-10.523 8.092,-22.041 9.883,-33.719 0.476,-3.098 0.799,-6.219 1.296,-10.148 -6.079,4.13 -9.513,9.364 -11.551,15.271 -4.686,13.582 -8.911,27.324 -13.563,41.748 z"
   id="path88"
   style="fill:#000000" /><path
   fill-rule="evenodd"
   clip-rule="evenodd"
   d="m 414.617,184.584 c 5.526,15.109 16.91,22.603 30.972,27.482 -0.015,-16.157 -14.718,-29.406 -30.972,-27.482 z"
   id="path90"
   style="fill:#000000" /><path
   fill-rule="evenodd"
   clip-rule="evenodd"
   d="m 355.172,360.595 c -0.187,-2.439 0.281,-4.435 -0.504,-5.336 -7.96,-9.13 -15.914,-18.281 -24.297,-27.019 -6.651,-6.934 -15.115,-8.282 -24.426,-5.816 9.321,2.658 16.732,8.116 23.489,14.778 7.542,7.436 15.399,14.551 23.132,21.792 0.345,0.322 0.816,0.511 2.606,1.601 z"
   id="path92"
   style="fill:#000000" /><path
   fill-rule="evenodd"
   clip-rule="evenodd"
   d="m 412.701,298.698 c 16.91,-9.241 23.929,-24.575 16.774,-35.813 -12.904,8.33 -13.702,22.154 -16.774,35.813 z"
   id="path94"
   style="fill:#000000" /><path
   fill-rule="evenodd"
   clip-rule="evenodd"
   d="m 407.199,266.479 c 11.636,1.898 28.478,-9.895 27.102,-25.021 -9.959,-1.355 -23.095,13.828 -27.102,25.021 z"
   id="path96"
   style="fill:#000000" /><path
   fill-rule="evenodd"
   clip-rule="evenodd"
   d="m 407.372,235.634 c 19.347,1.516 31.896,-5.937 33.538,-19.621 -14.448,0.628 -24.484,8.379 -33.538,19.621 z"
   id="path98"
   style="fill:#000000" /><path
   fill-rule="evenodd"
   clip-rule="evenodd"
   d="m 371.064,257.91 c -11.458,-20.188 -18.646,-29.043 -32.372,-30.561 5.195,7.24 10.167,14.578 15.578,21.575 4.002,5.176 9.575,8.047 16.794,8.986 z"
   id="path100"
   style="fill:#000000" /><path
   fill-rule="evenodd"
   clip-rule="evenodd"
   d="m 370.32,214.32 c -5.154,-22.997 -11.486,-33.555 -23.296,-38.077 3.25,8.549 6.208,17.042 9.711,25.303 2.477,5.841 7.03,9.936 13.585,12.774 z"
   id="path102"
   style="fill:#000000" /><path
   fill-rule="evenodd"
   clip-rule="evenodd"
   d="m 335.044,284.809 c 6.314,4.467 12.212,8.667 18.14,12.823 6.446,4.519 13.327,7.284 22.369,5.113 -12.6,-9.279 -23.259,-20.653 -40.509,-17.936 z"
   id="path104"
   style="fill:#000000" /><path
   fill-rule="evenodd"
   clip-rule="evenodd"
   d="m 364.479,361.943 c 13.338,1.966 24.804,-1.993 35.414,-9.175 -3.711,-5.083 -8.887,-6.709 -14.325,-3.721 -7.214,3.965 -14.077,8.568 -21.089,12.896 z"
   id="path106"
   style="fill:#000000" /><path
   fill-rule="evenodd"
   clip-rule="evenodd"
   d="m 410.092,293.219 c -5.406,-2.736 -10.594,-2.118 -15.497,1.047 -5.607,3.62 -11.066,7.469 -16.403,11.092 12.862,4.05 26.838,-1.077 31.9,-12.139 z"
   id="path108"
   style="fill:#000000" /><path
   fill-rule="evenodd"
   clip-rule="evenodd"
   d="m 369.853,220.12 c 6.323,9.235 20.136,13.418 33.1,9.395 -3.905,-7.586 -10.612,-9.375 -18.251,-9.393 -5.069,-0.012 -10.138,-0.002 -14.849,-0.002 z"
   id="path110"
   style="fill:#000000" /><path
   fill-rule="evenodd"
   clip-rule="evenodd"
   d="m 372.634,262.225 c 9.64,8.08 24.498,7.718 32.167,-0.783 -6.956,-6.188 -12.377,-6.055 -32.167,0.783 z"
   id="path112"
   style="fill:#000000" /><path
   fill-rule="evenodd"
   clip-rule="evenodd"
   fill="#ffffff"
   d="m 480.31613,455.27987 c 7.15338,-9.96215 6.33595,-18.85369 0.0923,-28.68487 -6.50735,9.75362 -6.99704,18.58413 -0.0923,28.68487 z"
   id="path114"
   style="fill:#000000;stroke-width:1.54752" />
</svg>
